# xmcd CD database file
#
# Track frame offsets:
#	150
#	17885
#	35370
#	54290
#	70341
#	87483
#	106703
#	123613
#	143370
#	159565
#
# Disc length: 2401 seconds
#
# Revision: 0
# Processed by: cddbd v1.5.1PL2 Copyright (c) Steve Scherf et al.
# Submitted via: CDex 1.51
#
DISCID=7c095f0a
DTITLE=The Mods - BLUE〜Midnight Highway
DYEAR=1900
DGENRE=Rock
TTITLE0=COME ON DOWN - WE ARE THE MODS
TTITLE1=夜のハイウェイ
TTITLE2=BABY BLUE
TTITLE3=死ぬほどKISS
TTITLE4=CRY BABY CRY
TTITLE5=RUMBLE ROCK
TTITLE6=夜に抱かれて/ SHADOW OF THE NIGHT
TTITLE7=MIDNIGHT SHUFFLE
TTITLE8=DREAM ON
TTITLE9=BACK STAGE
EXTD=
EXTT0=
EXTT1=
EXTT2=
EXTT3=
EXTT4=
EXTT5=
EXTT6=
EXTT7=
EXTT8=
EXTT9=
PLAYORDER=
